PathFileType	3	(X/Y/Z)	D:\minhoCalibration\240510\subject5_KPNP\preferred\preferred04.trc
DataRate	CameraRate	NumFrames	NumMarkers	Units	OrigDataRate	OrigDataStartFrame	OrigNumFrames
200.0	200.0	33	10	mm	200.0	340	201	
Frame#	Time	Left_Ankle_Outer1			Left_Ankle_Inner1			Left_Knee_Outer1			Left_Knee_Inner1			Left_Wrist1			Right_Wrist1			Right_Knee_Inner1			Right_Knee_Outer1			Right_Ankle_Inner1			Right_Ankle_Outer1			
		X1	Y1	Z1	X2	Y2	Z2	X3	Y3	Z3	X4	Y4	Z4	X5	Y5	Z5	X6	Y6	Z6	X7	Y7	Z7	X8	Y8	Z8	X9	Y9	Z9	X10	Y10	Z10	
340	1.69	-619.21271	73.366821	-537.46198	-649.18329	83.9869	-495.54178	-492.56479	532.01715	-497.74695	-575.68732	518.71295	-453.82706	-444.90842	1032.3462	-524.85455	-770.44421	1066.3359	-519.61865	-755.45221	522.79242	-483.72659	-831.46954	564.83862	-503.22913	-766.58527	112.40834	-660.89532	-830.6073	149.78151	-724.72388
341	1.695	-619.12866	73.335136	-537.5379	-649.0047	83.986397	-495.80722	-492.96692	532.20929	-497.81793	-576.29352	518.8559	-454.22089	-445.77399	1033.1422	-524.71606	-772.04651	1065.87	-522.27948	-756.03119	522.10553	-491.24869	-831.87402	563.93079	-511.5968	-762.88171	113.80795	-671.58685	-826.37286	150.88629	-736.34546
342	1.7	-619.07617	73.281967	-537.58374	-649.06879	84.088409	-495.88406	-493.48462	532.28113	-497.96851	-576.96484	519.00891	-454.65201	-447.32504	1033.5468	-524.55884	-773.17352	1065.3843	-524.80444	-756.70825	521.50531	-498.38852	-832.31012	563.48956	-519.901	-759.87854	114.10233	-682.24127	-822.31091	152.01204	-747.50934
343	1.705	-618.26111	73.691628	-538.26904	-649.06775	84.07785	-496.05914	-494.01221	532.45953	-498.0444	-577.61456	519.08667	-455.16779	-448.52097	1034.064	-524.62903	-774.80609	1064.8458	-527.58575	-756.55182	520.89899	-505.86063	-832.44934	562.7746	-527.80719	-756.29779	114.87198	-692.64661	-818.39941	153.06862	-758.17731
344	1.71	-619.40131	72.811729	-537.31757	-649.12958	84.088341	-496.06293	-494.49411	532.55353	-498.26852	-578.26367	519.11359	-455.75699	-450.0835	1034.4186	-524.62341	-775.86261	1064.3893	-530.31805	-756.62561	520.3797	-513.07275	-832.51691	562.10657	-535.85101	-753.19507	116.04829	-702.16022	-814.62628	154.06381	-768.39996
345	1.715	-619.4845	72.772034	-537.32874	-649.17456	83.968201	-496.27325	-494.84628	532.66638	-498.63419	-578.87646	519.15308	-456.34793	-451.55591	1034.7445	-524.76855	-777.52991	1063.9225	-533.08209	-756.47443	519.88391	-520.15363	-832.34351	561.57892	-543.29053	-749.9032	116.33164	-711.96051	-811.03369	154.9854	-778.07281
346	1.72	-619.41437	72.769623	-537.39282	-649.13776	83.883942	-496.27112	-495.45044	532.62152	-498.89093	-579.57043	519.11011	-456.87802	-452.95618	1035.1675	-525.04211	-779.16956	1063.4291	-535.92212	-756.24225	519.45813	-527.01508	-831.97809	561.2608	-550.5741	-746.90796	117.30462	-720.73499	-807.64465	155.75914	-787.41113
347	1.725	-619.492	72.678864	-537.35162	-649.24664	83.890854	-496.14752	-496.12036	532.57404	-499.32132	-580.17493	519.09644	-457.457	-454.49628	1035.5471	-525.38416	-780.76099	1062.9808	-538.88116	-756.1427	519.25458	-533.85925	-831.79858	560.67047	-557.94843	-743.8822	117.51892	-729.53674	-804.40674	156.47411	-796.2326
348	1.73	-619.49951	72.652206	-537.32281	-649.21967	83.819099	-496.24188	-496.66113	532.62555	-499.68106	-580.77637	519.17731	-457.97806	-456.21307	1035.8574	-525.71173	-782.38977	1062.551	-541.88446	-755.74756	518.80597	-540.57709	-831.43127	560.26141	-565.3089	-740.61829	118.1005	-737.9884	-801.22864	156.98587	-804.61255
349	1.735	-619.41577	72.760345	-537.40723	-649.29443	83.777504	-496.25119	-496.85724	532.72961	-500.20538	-581.32684	519.18921	-458.58051	-457.70386	1036.301	-526.30615	-783.82623	1062.028	-544.97955	-755.17773	518.32446	-547.30701	-831.06818	559.8017	-572.14893	-737.49548	118.65422	-745.86829	-798.14954	157.43857	-812.54602
350	1.74	-619.53369	72.682922	-537.36725	-649.29779	83.817215	-496.28574	-497.44827	532.76825	-500.51804	-581.87933	519.2569	-459.1246	-459.36835	1036.7598	-526.89972	-785.3988	1061.5566	-548.08002	-755.05798	518.3205	-553.56885	-830.76251	559.32404	-579.11353	-734.46014	119.10503	-753.37561	-795.29846	157.64088	-820.05914
351	1.745	-619.57355	72.761803	-537.31641	-649.92493	83.977745	-495.435	-498.11871	532.68878	-500.82834	-582.3811	519.33777	-459.71429	-461.16489	1037.0347	-527.59631	-787.06525	1060.9606	-551.29742	-754.61475	517.98804	-559.8952	-830.38074	558.91217	-585.63129	-731.62213	119.44783	-760.46228	-792.44098	157.8661	-827.20819
352	1.75	-619.52161	72.714783	-537.3764	-649.84491	83.835304	-495.79684	-498.64917	532.72052	-501.20688	-582.8446	519.47961	-460.28842	-462.85376	1037.407	-528.55469	-788.6817	1060.4495	-554.51489	-754.33728	517.67603	-565.95355	-830.10809	558.36798	-592.17749	-728.68951	120.09041	-766.94324	-789.78546	157.88428	-833.85614
353	1.755	-619.49487	72.640564	-537.38885	-649.27716	83.840248	-496.38156	-498.95673	532.90332	-501.55222	-583.21527	519.53296	-460.93405	-464.6091	1037.8135	-529.63843	-790.32935	1059.9146	-557.68884	-753.41675	517.38354	-572.65814	-829.59393	557.98114	-598.29132	-725.85657	119.95947	-773.40454	-787.17059	157.75862	-840.16278
354	1.76	-619.46777	72.660263	-537.37817	-649.77698	84.152382	-495.5488	-499.31006	532.90973	-501.99783	-583.66571	519.68182	-461.45044	-466.56186	1038.1292	-530.77222	-791.59308	1059.2836	-560.93787	-752.66925	517.3399	-578.67767	-829.19379	557.54218	-604.4328	-723.32062	119.99807	-779.36322	-784.76074	157.55144	-846.12842
355	1.765	-619.30084	72.865807	-537.46643	-649.15771	83.937775	-496.70728	-499.68063	533.08118	-502.23392	-584.10858	519.86487	-461.99542	-468.39828	1038.4177	-532.14044	-793.03333	1058.7285	-564.19214	-752.39185	517.13013	-584.38605	-828.81226	557.09503	-610.29773	-720.84967	120.01147	-784.80908	-782.37952	157.14308	-851.61096
356	1.77	-619.26245	72.798485	-537.54584	-649.12292	84.055725	-496.73013	-500.20486	533.31866	-502.53378	-584.57312	520.05939	-462.58566	-470.21237	1038.7281	-533.70752	-795.12671	1058.1301	-567.48596	-751.38843	517.02008	-590.53107	-828.30377	556.67926	-616.06335	-718.43158	119.99973	-789.97919	-780.14948	156.54884	-856.82709
357	1.775	-619.04767	72.940239	-537.67169	-648.71295	84.241646	-497.05557	-500.53412	533.42029	-502.92294	-585.01019	520.25006	-463.22382	-472.11099	1039.0177	-535.38916	-796.56738	1057.572	-570.7121	-751.25769	517.00946	-596.02283	-828.01691	556.15472	-621.9184	-716.21625	120.02992	-794.44366	-778.11609	155.89766	-861.6333
358	1.78	-618.92859	73.010269	-537.80176	-648.58405	84.189392	-497.32117	-500.84937	533.62305	-503.36749	-585.45862	520.45178	-463.83133	-473.9527	1039.1786	-537.19714	-797.58337	1057.8021	-573.73987	-750.65918	516.80389	-601.65399	-827.54755	555.73199	-627.14362	-713.92206	119.29634	-799.2312	-776.17773	155.00041	-866.07599
359	1.785	-618.84766	72.983971	-537.82642	-649.48389	84.499916	-496.15848	-501.20724	533.73242	-503.79092	-585.78967	520.55841	-464.63297	-475.84927	1039.3246	-539.14722	-798.93359	1056.4773	-578.21918	-749.9256	516.26184	-606.80029	-827.41077	555.03857	-632.76489	-711.96039	118.81695	-803.33069	-774.37463	153.96143	-870.2522
360	1.79	-618.81451	72.98333	-537.88086	-649.34894	84.317398	-496.55063	-501.49704	533.89642	-504.33932	-586.0636	520.65912	-465.40909	-477.71588	1039.4756	-541.20758	-801.47302	1056.3119	-579.49237	-749.51379	516.13232	-612.21381	-826.92651	554.38367	-638.08868	-710.19073	118.08454	-807.18768	-772.85883	152.8196	-874.10095
361	1.795	-619.39136	72.657349	-537.16138	-649.44641	84.543747	-496.23618	-501.73486	533.93079	-504.92703	-586.39691	520.73206	-466.08749	-479.54398	1039.6101	-543.38312	-803.16174	1055.7946	-582.72516	-748.93933	515.63782	-617.19812	-826.2879	553.80902	-643.19696	-708.64441	117.19668	-810.73669	-771.4859	151.44885	-877.63794
362	1.8	-618.89813	72.858467	-537.74286	-649.51611	84.43399	-496.45776	-501.98865	534.0188	-505.63986	-586.73889	520.86298	-466.76978	-481.32599	1039.6495	-545.70233	-806.35492	1056.3333	-581.88806	-748.31244	515.09558	-622.12366	-825.89899	553.03607	-648.284	-707.49957	115.96124	-813.90723	-770.27026	149.97952	-881.01086
363	1.805	-618.51221	73.094673	-538.22101	-648.71399	84.370789	-497.48929	-502.47156	534.07489	-506.285	-587.0271	520.85437	-467.46143	-483.16534	1039.5718	-548.112	-808.05164	1055.4264	-585.63776	-747.79364	514.59491	-626.84814	-825.32623	552.2597	-653.20966	-706.28137	114.97863	-816.93549	-768.94708	148.17667	-884.02783
364	1.81	-618.28247	73.10041	-538.49078	-649.46722	84.434494	-496.58731	-503.1413	534.05579	-506.98178	-587.29443	520.8858	-468.17947	-485.06961	1039.5245	-550.68164	-809.60443	1053.7076	-590.4342	-747.36383	514.1593	-631.55975	-824.90778	551.30463	-657.99084	-705.02667	113.5551	-819.57269	-767.90302	146.40767	-886.74231
365	1.815	-618.15869	73.135193	-538.62299	-649.55432	84.293007	-496.99402	-503.22705	533.97363	-507.53333	-587.59888	520.90393	-468.88309	-486.89606	1039.5032	-553.37274	-810.53198	1052.9358	-595.05884	-746.47113	513.35889	-636.32428	-824.22363	550.5874	-662.68964	-704.64587	112.05294	-821.27283	-767.10559	144.44856	-888.63452
366	1.82	-618.21619	73.035278	-538.58307	-648.91284	84.187454	-497.62277	-503.4892	534.11005	-508.02814	-587.91534	520.93372	-469.46747	-488.49078	1039.3619	-556.17194	-812.24194	1052.0416	-598.52032	-746.00873	512.84467	-641.15948	-823.83636	549.9328	-667.39471	-704.62573	110.22198	-822.08698	-766.6521	142.19926	-889.95856
367	1.825	-618.25354	73.118004	-538.70905	-648.9101	84.127373	-497.69342	-503.56775	534.21472	-508.64606	-588.15747	520.99115	-470.0791	-490.21088	1039.1992	-559.0188	-814.02142	1051.2057	-601.84534	-745.47906	512.28516	-645.9707	-823.42078	549.28833	-672.28778	-704.90228	108.27134	-822.53381	-766.4837	139.79831	-891.06177
368	1.83	-618.27051	73.075516	-538.6955	-648.93579	84.156654	-497.62201	-503.89926	534.242	-509.04196	-588.33423	521.08099	-470.58316	-491.89752	1039.0188	-562.00037	-815.69855	1050.2068	-605.29504	-744.99915	511.78748	-650.65497	-823.13287	548.66339	-677.17719	-705.00018	106.4692	-822.84521	-766.27618	137.47618	-891.77008
369	1.835	-618.26282	73.035583	-538.67725	-649.55762	84.235466	-497.07562	-503.96799	534.33179	-509.51553	-588.45392	521.13177	-471.04504	-493.50803	1038.7695	-565.12268	-817.36646	1049.2988	-608.62354	-744.80975	511.52383	-655.2583	-822.91553	548.15143	-681.89703	-705.1272	104.8217	-823.06403	-766.11121	135.21039	-892.44934
370	1.84	-618.26245	73.022697	-538.65735	-649.29382	84.322144	-497.07132	-504.04263	534.4588	-510.03284	-588.56738	521.22552	-471.51065	-495.19934	1038.447	-568.36328	-819.04071	1048.4034	-611.98566	-744.64551	511.01434	-659.36511	-822.93005	547.49445	-686.64722	-705.10614	103.3427	-823.38434	-765.87384	133.16479	-893.10144
371	1.845	-618.25122	73.026703	-538.60553	-648.94849	84.133171	-497.66577	-503.91882	534.60962	-510.45691	-588.58887	521.31256	-471.95111	-496.85223	1038.0393	-571.63904	-820.74487	1047.4796	-615.25348	-744.75146	510.7236	-663.40613	-822.89795	546.96942	-690.84753	-704.86517	101.96687	-824.0434	-765.12579	131.00725	-893.39252
372	1.85	-618.35004	73.049026	-538.67505	-649.40521	84.378838	-496.80029	-504.06335	534.70874	-510.86121	-588.60071	521.41522	-472.2493	-498.48749	1037.5566	-574.98083	-822.42322	1046.6644	-618.55902	-744.92322	510.44525	-666.91522	-822.90082	546.30182	-694.82556	-704.34045	100.90468	-824.88171	-764.83875	129.58708	-894.82812
